<?xml version="1.0" encoding="utf-8"?>
<!-- created with bpmn-js / http://bpmn.io -->
<!DOCTYPE svg PUBLIC "-//W3C//DTD SVG 1.1//EN" "http://www.w3.org/Graphics/SVG/1.1/DTD/svg11.dtd">
<svg xmlns="http://www.w3.org/2000/svg" xmlns:xlink="http://www.w3.org/1999/xlink" width="610" height="370" viewBox="153 35 610 370" version="1.1"><defs><pattern id="djs-grid-pattern-684227" width="10" height="10" patternUnits="userSpaceOnUse"><circle cx="0.5" cy="0.5" r="0.5" style="fill: rgb(204, 204, 204);"/></pattern></defs><g class="djs-group"><g class="djs-element djs-shape" data-element-id="Participant_1bjcxui" style="display: block;" transform="matrix(1 0 0 1 158 40)"><g class="djs-visual"><rect x="0" y="0" width="600" height="360" rx="0" ry="0" style="stroke-linecap: round; stroke-linejoin: round; stroke: rgb(34, 36, 42); stroke-width: 1.5px; fill: white; fill-opacity: 0.95;"/><path style="fill: none; stroke-linecap: round; stroke-linejoin: round; stroke: rgb(34, 36, 42); stroke-width: 1.5px;" d="M30,0L30,360"/><text lineHeight="1.2" class="djs-label" style="font-family: Arial, sans-serif; font-size: 12px; font-weight: normal; fill: rgb(34, 36, 42);" transform="matrix(-1.83697e-16 -1 1 -1.83697e-16 0 360)"><tspan x="135.64453125" y="18.6">Simple_example</tspan></text></g><rect class="djs-hit djs-hit-no-move" x="0" y="0" width="600" height="360" style="fill: none; stroke-opacity: 0; stroke: white; stroke-width: 15px;"/><rect class="djs-hit djs-hit-click-stroke" x="0" y="0" width="600" height="360" style="fill: none; stroke-opacity: 0; stroke: white; stroke-width: 15px;"/><rect class="djs-hit djs-hit-all" x="0" y="0" width="30" height="360" style="fill: none; stroke-opacity: 0; stroke: white; stroke-width: 15px;"/></g><g class="djs-children"><g class="djs-group"><g class="djs-element djs-shape" data-element-id="StartEvent_1" style="display: block;" transform="matrix(1 0 0 1 242 212)"><g class="djs-visual"><circle cx="18" cy="18" r="18" style="stroke-linecap: round; stroke-linejoin: round; stroke: rgb(34, 36, 42); stroke-width: 2px; fill: white; fill-opacity: 0.95;"/></g><rect class="djs-hit djs-hit-all" x="0" y="0" width="36" height="36" style="fill: none; stroke-opacity: 0; stroke: white; stroke-width: 15px;"/></g></g><g class="djs-group"><g class="djs-element djs-shape" data-element-id="StartEvent_1_label" style="display: block;" transform="matrix(1 0 0 1 248 248)"><g class="djs-visual"><text lineHeight="1.2" class="djs-label" style="font-family: Arial, sans-serif; font-size: 11px; font-weight: normal; fill: rgb(34, 36, 42);"><tspan x="0.385009765625" y="9.899999999999999">Start</tspan></text></g><rect class="djs-hit djs-hit-all" x="0" y="0" width="24" height="14" style="fill: none; stroke-opacity: 0; stroke: white; stroke-width: 15px;"/></g></g><g class="djs-group"><g class="djs-element djs-shape" data-element-id="Task_1" style="display: block;" transform="matrix(1 0 0 1 370 192)"><g class="djs-visual"><rect x="0" y="0" width="100" height="60" rx="10" ry="10" style="stroke-linecap: round; stroke-linejoin: round; stroke: rgb(34, 36, 42); stroke-width: 2px; fill: white; fill-opacity: 0.95;"/><text lineHeight="1.2" class="djs-label" style="font-family: Arial, sans-serif; font-size: 12px; font-weight: normal; fill: rgb(34, 36, 42);"><tspan x="16.9853515625" y="33.6">Increment_x</tspan></text></g><rect class="djs-hit djs-hit-all" x="0" y="0" width="100" height="60" style="fill: none; stroke-opacity: 0; stroke: white; stroke-width: 15px;"/></g></g><g class="djs-group"><g class="djs-element djs-shape" data-element-id="EndEvent_1" style="display: block;" transform="matrix(1 0 0 1 692 212)"><g class="djs-visual"><circle cx="18" cy="18" r="18" style="stroke-linecap: round; stroke-linejoin: round; stroke: rgb(34, 36, 42); stroke-width: 4px; fill: white; fill-opacity: 0.95;"/></g><rect class="djs-hit djs-hit-all" x="0" y="0" width="36" height="36" style="fill: none; stroke-opacity: 0; stroke: white; stroke-width: 15px;"/></g></g><g class="djs-group"><g class="djs-element djs-shape" data-element-id="EndEvent_1_label" style="display: block;" transform="matrix(1 0 0 1 700 248)"><g class="djs-visual"><text lineHeight="1.2" class="djs-label" style="font-family: Arial, sans-serif; font-size: 11px; font-weight: normal; fill: rgb(34, 36, 42);"><tspan x="0.2138671875" y="9.899999999999999">End</tspan></text></g><rect class="djs-hit djs-hit-all" x="0" y="0" width="20" height="14" style="fill: none; stroke-opacity: 0; stroke: white; stroke-width: 15px;"/></g></g><g class="djs-group"><g class="djs-element djs-shape" data-element-id="Gateway_1" style="display: block;" transform="matrix(1 0 0 1 555 205)"><g class="djs-visual"><polygon points="25,0 50,25 25,50 0,25" style="stroke-linecap: round; stroke-linejoin: round; stroke: rgb(34, 36, 42); stroke-width: 2px; fill: white; fill-opacity: 0.95;"/><path d="m 16,15 7.42857142857143,9.714285714285715 -7.42857142857143,9.714285714285715 3.428571428571429,0 5.714285714285715,-7.464228571428572 5.714285714285715,7.464228571428572 3.428571428571429,0 -7.42857142857143,-9.714285714285715 7.42857142857143,-9.714285714285715 -3.428571428571429,0 -5.714285714285715,7.464228571428572 -5.714285714285715,-7.464228571428572 -3.428571428571429,0 z" style="fill: rgb(34, 36, 42); stroke-linecap: round; stroke-linejoin: round; stroke: rgb(34, 36, 42); stroke-width: 1px;"/></g><rect class="djs-hit djs-hit-all" x="0" y="0" width="50" height="50" style="fill: none; stroke-opacity: 0; stroke: white; stroke-width: 15px;"/></g></g><g class="djs-group"><g class="djs-element djs-shape" data-element-id="Gateway_1_label" style="display: block;" transform="matrix(1 0 0 1 571 262)"><g class="djs-visual"><text lineHeight="1.2" class="djs-label" style="font-family: Arial, sans-serif; font-size: 11px; font-weight: normal; fill: rgb(34, 36, 42);"><tspan x="0.441162109375" y="9.899999999999999">Xor</tspan></text></g><rect class="djs-hit djs-hit-all" x="0" y="0" width="18" height="14" style="fill: none; stroke-opacity: 0; stroke: white; stroke-width: 15px;"/></g></g><g class="djs-group"><g class="djs-element djs-connection" data-element-id="Flow_1" style="display: block;"><g class="djs-visual"><defs><marker id="marker-1t187u7vg6jcdb3zclmq7z69d" viewBox="0 0 20 20" refX="11" refY="10" markerWidth="10" markerHeight="10" orient="auto"><path d="M 1 5 L 11 10 L 1 15 Z" style="stroke-linecap: round; stroke-linejoin: round; stroke: rgb(34, 36, 42); stroke-width: 1px; fill: rgb(34, 36, 42);"/></marker></defs><path data-corner-radius="5" style="fill: none; stroke-linecap: round; stroke-linejoin: round; stroke: rgb(34, 36, 42); stroke-width: 2px; marker-end: url('#marker-1t187u7vg6jcdb3zclmq7z69d');" d="M278,230L370,230"/></g><path d="M278,230L370,230" class="djs-hit djs-hit-stroke" style="fill: none; stroke-opacity: 0; stroke: white; stroke-width: 15px;"/></g></g><g class="djs-group"><g class="djs-element djs-connection" data-element-id="Flow_4" style="display: block;"><g class="djs-visual"><defs><marker id="marker-4qnkxn77xq6luvfwz0uvdkc41" viewBox="0 0 20 20" refX="11" refY="10" markerWidth="10" markerHeight="10" orient="auto"><path d="M 1 5 L 11 10 L 1 15 Z" style="stroke-linecap: round; stroke-linejoin: round; stroke: rgb(34, 36, 42); stroke-width: 1px; fill: rgb(34, 36, 42);"/></marker></defs><path data-corner-radius="5" style="fill: none; stroke-linecap: round; stroke-linejoin: round; stroke: rgb(34, 36, 42); stroke-width: 2px; marker-end: url('#marker-4qnkxn77xq6luvfwz0uvdkc41');" d="M580,205L580,135C580,132.5,577.5,130,575,130L425,130C422.5,130,420,132.5,420,135L420,192"/></g><path d="M580,205L580,130L420,130L420,192" class="djs-hit djs-hit-stroke" style="fill: none; stroke-opacity: 0; stroke: white; stroke-width: 15px;"/></g></g><g class="djs-group"><g class="djs-element djs-shape" data-element-id="Flow_4_label" style="display: block;" transform="matrix(1 0 0 1 486 112)"><g class="djs-visual"><text lineHeight="1.2" class="djs-label" style="font-family: Arial, sans-serif; font-size: 11px; font-weight: normal; fill: rgb(34, 36, 42);"><tspan x="0.2392578125" y="9.899999999999999">x &lt;=5</tspan></text></g><rect class="djs-hit djs-hit-all" x="0" y="0" width="28" height="14" style="fill: none; stroke-opacity: 0; stroke: white; stroke-width: 15px;"/></g></g><g class="djs-group"><g class="djs-element djs-connection" data-element-id="Flow_2" style="display: block;"><g class="djs-visual"><defs><marker id="marker-atlog8ubjjba2ilt6q71ck6zi" viewBox="0 0 20 20" refX="11" refY="10" markerWidth="10" markerHeight="10" orient="auto"><path d="M 1 5 L 11 10 L 1 15 Z" style="stroke-linecap: round; stroke-linejoin: round; stroke: rgb(34, 36, 42); stroke-width: 1px; fill: rgb(34, 36, 42);"/></marker></defs><path data-corner-radius="5" style="fill: none; stroke-linecap: round; stroke-linejoin: round; stroke: rgb(34, 36, 42); stroke-width: 2px; marker-end: url('#marker-atlog8ubjjba2ilt6q71ck6zi');" d="M470,232L558,233"/></g><path d="M470,232L558,233" class="djs-hit djs-hit-stroke" style="fill: none; stroke-opacity: 0; stroke: white; stroke-width: 15px;"/></g></g><g class="djs-group"><g class="djs-element djs-connection" data-element-id="Flow_3" style="display: block;"><g class="djs-visual"><defs><marker id="marker-eqrsateodh3l9v6p40jcttyg4" viewBox="0 0 20 20" refX="11" refY="10" markerWidth="10" markerHeight="10" orient="auto"><path d="M 1 5 L 11 10 L 1 15 Z" style="stroke-linecap: round; stroke-linejoin: round; stroke: rgb(34, 36, 42); stroke-width: 1px; fill: rgb(34, 36, 42);"/></marker></defs><path data-corner-radius="5" style="fill: none; stroke-linecap: round; stroke-linejoin: round; stroke: rgb(34, 36, 42); stroke-width: 2px; marker-end: url('#marker-eqrsateodh3l9v6p40jcttyg4');" d="M604,231L692,230"/></g><path d="M604,231L692,230" class="djs-hit djs-hit-stroke" style="fill: none; stroke-opacity: 0; stroke: white; stroke-width: 15px;"/></g></g><g class="djs-group"><g class="djs-element djs-shape" data-element-id="Flow_3_label" style="display: block;" transform="matrix(1 0 0 1 658 212)"><g class="djs-visual"><text lineHeight="1.2" class="djs-label" style="font-family: Arial, sans-serif; font-size: 11px; font-weight: normal; fill: rgb(34, 36, 42);"><tspan x="0.423095703125" y="9.899999999999999">x &gt; 5</tspan></text></g><rect class="djs-hit djs-hit-all" x="0" y="0" width="25" height="14" style="fill: none; stroke-opacity: 0; stroke: white; stroke-width: 15px;"/></g></g></g></g></svg>
