<?xml version="1.0" encoding="UTF-8"?> <svg xmlns="http://www.w3.org/2000/svg" width="264" height="110" viewBox="0 0 264 110" fill="none"><rect width="264" height="110" fill="white"></rect><path d="M101.823 64.0233C105.591 64.0233 108.645 60.9686 108.645 57.2006C108.645 53.4325 105.591 50.3779 101.823 50.3779C98.0546 50.3779 95 53.4325 95 57.2006C95 60.9686 98.0546 64.0233 101.823 64.0233Z" fill="#FC5D0D"></path><path d="M162.177 64.0233C165.945 64.0233 169 60.9686 169 57.2006C169 53.4325 165.945 50.3779 162.177 50.3779C158.409 50.3779 155.354 53.4325 155.354 57.2006C155.354 60.9686 158.409 64.0233 162.177 64.0233Z" fill="#FC5D0D"></path><path d="M127.491 50.3779H113.845V64.0233H127.491V50.3779Z" fill="#FC5D0D"></path><path d="M150.971 57.2005L141.322 47.5518L131.674 57.2005L141.322 66.8493L150.971 57.2005Z" fill="#FC5D0D"></path></svg> 